<?xml version="1.0" standalone="no"?><!DOCTYPE svg PUBLIC "-//W3C//DTD SVG 1.1//EN" "http://www.w3.org/Graphics/SVG/1.1/DTD/svg11.dtd"><svg t="1692866169628" class="icon" viewBox="0 0 1024 1024" version="1.1" xmlns="http://www.w3.org/2000/svg" p-id="2763" xmlns:xlink="http://www.w3.org/1999/xlink" width="256" height="256"><path d="M771.84 505.6v247.68H252.16V629.76l86.4-87.04 99.2 99.2 148.48-148.48 99.2 99.2 86.4-87.04z" fill="#69C6DC" p-id="2764"></path><path d="M771.84 431.36V505.6l-86.4 87.04-99.2-99.2-148.48 148.48h-0.64L338.56 542.72 252.16 629.76v-198.4h519.68z" fill="#EA5E5A" p-id="2765"></path><path d="M809.6 518.4h24.96v284.8h-24.96z" fill="#34303D" p-id="2766"></path><path d="M832 889.6H192a64 64 0 0 1-64-64v-37.12h289.92l24.96 24.96h138.24l24.96-24.96H896v37.12a64 64 0 0 1-64 64zM152.96 815.36v12.16a37.12 37.12 0 0 0 37.12 37.12H832a37.12 37.12 0 0 0 37.12-37.12v-12.16h-256l-24.96 24.96H432.64l-24.96-24.96z" fill="#34303D" p-id="2767"></path><path d="M214.4 803.2H192v-128l146.56-149.76 99.2 99.2 148.48-148.48L685.44 576l124.16-128v-41.6a12.16 12.16 0 0 0-12.16-12.16H227.2a12.16 12.16 0 0 0-12.16 12.16v211.2H192v-211.2a37.12 37.12 0 0 1 37.12-37.12h569.6a37.12 37.12 0 0 1 37.12 37.12v54.4l-150.4 149.12L586.24 512l-148.48 147.84-99.2-99.2-124.16 123.52z" fill="#34303D" p-id="2768"></path><path d="M252.16 679.04h24.96v74.24h-24.96zM301.44 629.76h24.96v124.16h-24.96zM350.72 629.76h24.96v124.16h-24.96zM400.64 679.04h24.96v74.24h-24.96zM449.92 679.04h24.96v74.24h-24.96zM499.84 629.76h24.96v124.16h-24.96zM549.12 579.84h24.96v173.44h-24.96zM598.4 579.84h24.96v173.44h-24.96zM648.32 629.76h24.96v124.16h-24.96zM697.6 629.76h24.96v124.16h-24.96zM747.52 579.84h24.96v173.44h-24.96z" fill="#34303D" p-id="2769"></path><path d="M276.48 455.68h24.96v24.96h-24.96zM326.4 455.68h24.96v24.96H326.4zM375.68 455.68h24.96v24.96h-24.96z" fill="#FFFFFF" p-id="2770"></path><path d="M722.56 344.96h-24.96v-14.72L645.76 320v-7.68a135.04 135.04 0 0 0-15.36-37.76l-4.48-7.04 32.64-45.44-22.4-22.4-45.44 32.64-8.32-3.84a135.04 135.04 0 0 0-37.76-15.36h-7.68l-10.24-51.84h-29.44l-10.24 51.84h-7.68a135.04 135.04 0 0 0-37.76 15.36l-7.04 4.48-45.44-32.64-22.4 22.4 32.64 45.44-4.48 7.04a135.68 135.68 0 0 0-15.36 37.76v7.68l-51.84 10.24v14.72h-26.24v-35.84l56.32-11.52a160 160 0 0 1 12.16-30.08l-35.2-49.28 49.28-51.2 49.28 35.2A160 160 0 0 1 465.92 192l11.52-56.32h69.76l10.88 56.32a160 160 0 0 1 30.08 12.16l51.84-36.48 51.84 51.84-35.2 49.28a160.64 160.64 0 0 1 12.16 30.08l56.32 11.52z" fill="#34303D" p-id="2771"></path><path d="M512 245.76a99.2 99.2 0 0 0-99.2 99.2h74.24a24.96 24.96 0 0 1 49.28 0h74.88A99.2 99.2 0 0 0 512 245.76z" fill="#EA5E5A" p-id="2772"></path><path d="M623.36 344.96h-24.96a86.4 86.4 0 1 0-173.44 0h-24.32a111.36 111.36 0 1 1 222.72 0z" fill="#34303D" p-id="2773"></path><path d="M549.12 344.96h-24.96a12.16 12.16 0 0 0-24.96 0h-24.32a37.12 37.12 0 0 1 74.24 0z" fill="#34303D" p-id="2774"></path></svg>