<?xml version="1.0" standalone="no"?><!DOCTYPE svg PUBLIC "-//W3C//DTD SVG 1.1//EN" "http://www.w3.org/Graphics/SVG/1.1/DTD/svg11.dtd"><svg t="1692866099317" class="icon" viewBox="0 0 1024 1024" version="1.1" xmlns="http://www.w3.org/2000/svg" p-id="2272" xmlns:xlink="http://www.w3.org/1999/xlink" width="256" height="256"><path d="M704 259.84h24.32v24.32H704zM704 211.84h24.32v24.32H704zM704 163.84h24.32v24.32H704zM296.32 739.84h24.32v24.32h-24.32zM296.32 787.84h24.32v24.32h-24.32zM296.32 835.84h24.32v24.32h-24.32z" fill="#34303D" p-id="2273"></path><path d="M307.84 296.32A119.68 119.68 0 1 0 428.16 416a120.32 120.32 0 0 0-120.32-119.68z m0 144a24.32 24.32 0 1 1 24.32-23.68 24.32 24.32 0 0 1-24.32 23.68z" fill="#EA5E5A" p-id="2274"></path><path d="M176 211.84h24.32v24.32h-24.32zM416 211.84h24.32v24.32H416zM176 595.84h24.32v24.32h-24.32zM224 572.16h-48v-24.32h42.88L299.52 467.2l17.28 17.28-84.48 83.84a12.16 12.16 0 0 1-8.32 3.84zM416 595.84h24.32v24.32H416zM307.84 451.84a35.84 35.84 0 1 1 35.84-35.84 35.84 35.84 0 0 1-35.84 35.84z m0-48A12.16 12.16 0 1 0 320 416a12.16 12.16 0 0 0-12.16-12.16zM392.32 416h-24.32a60.16 60.16 0 0 0-60.16-60.16v-23.68A83.84 83.84 0 0 1 392.32 416z" fill="#34303D" p-id="2275"></path><path d="M451.84 668.16h-288A35.84 35.84 0 0 1 128 632.32V200.32a35.84 35.84 0 0 1 35.84-35.84h288a35.84 35.84 0 0 1 35.84 35.84v432a35.84 35.84 0 0 1-35.84 35.84z m-288-480a12.16 12.16 0 0 0-12.16 12.16v432a12.16 12.16 0 0 0 12.16 12.16h288a12.16 12.16 0 0 0 12.16-12.16V200.32a12.16 12.16 0 0 0-12.16-12.16z" fill="#34303D" p-id="2276"></path><path d="M716.16 488.32a120.32 120.32 0 1 0 119.68 119.68 120.32 120.32 0 0 0-119.68-119.68z m0 144a24.32 24.32 0 1 1 24.32-23.68 24.32 24.32 0 0 1-24.32 23.68z" fill="#EA5E5A" p-id="2277"></path><path d="M584.32 403.84h24.32v24.32h-24.32zM824.32 403.84h24.32v24.32h-24.32zM584.32 787.84h24.32v24.32h-24.32zM632.32 764.16h-48v-23.68h42.88l80.64-80.64 17.28 17.28-85.12 83.2a12.16 12.16 0 0 1-7.68 3.84zM824.32 787.84h24.32v24.32h-24.32zM716.16 643.84a35.84 35.84 0 1 1 35.84-35.84 35.84 35.84 0 0 1-35.84 35.84z m0-48a12.16 12.16 0 1 0 12.16 12.16 12.16 12.16 0 0 0-12.16-12.16zM800 608h-23.68a60.16 60.16 0 0 0-60.16-60.16v-23.68A83.84 83.84 0 0 1 800 608z" fill="#34303D" p-id="2278"></path><path d="M860.16 860.16h-288a35.84 35.84 0 0 1-35.84-35.84V392.32a35.84 35.84 0 0 1 35.84-35.84h288a35.84 35.84 0 0 1 35.84 35.84v432a35.84 35.84 0 0 1-35.84 35.84z m-288-480a12.16 12.16 0 0 0-12.16 12.16v432a12.16 12.16 0 0 0 12.16 12.16h288a12.16 12.16 0 0 0 12.16-12.16V392.32a12.16 12.16 0 0 0-12.16-12.16z" fill="#34303D" p-id="2279"></path></svg>