<?xml version="1.0" standalone="no"?><!DOCTYPE svg PUBLIC "-//W3C//DTD SVG 1.1//EN" "http://www.w3.org/Graphics/SVG/1.1/DTD/svg11.dtd"><svg t="1692865975796" class="icon" viewBox="0 0 1024 1024" version="1.1" xmlns="http://www.w3.org/2000/svg" p-id="1783" xmlns:xlink="http://www.w3.org/1999/xlink" width="256" height="256"><path d="M640 832l-8.96-24.32a337.92 337.92 0 0 0 217.6-267.52l25.6 3.84A364.16 364.16 0 0 1 640 832zM846.72 442.24a338.56 338.56 0 0 0-669.44 0l-25.6-3.84a364.16 364.16 0 0 1 720.64 0zM469.76 854.4a364.16 364.16 0 0 1-320-308.48l25.6-3.84a338.56 338.56 0 0 0 295.68 286.08z" fill="#34303D" p-id="1784"></path><path d="M512 896a51.84 51.84 0 1 1 51.84-51.84A51.84 51.84 0 0 1 512 896z m0-78.08a26.24 26.24 0 1 0 26.24 26.24 26.24 26.24 0 0 0-26.24-26.24zM512 296.96a51.84 51.84 0 1 1 51.84-51.84 51.84 51.84 0 0 1-51.84 51.84z m0-78.08a26.24 26.24 0 1 0 26.24 26.24 26.24 26.24 0 0 0-26.24-26.24zM282.88 442.88L256 437.76a259.84 259.84 0 0 1 132.48-174.72l12.16 23.04a233.6 233.6 0 0 0-117.76 156.8zM512 752.64a261.12 261.12 0 0 1-256-205.44l25.6-5.76a234.24 234.24 0 0 0 458.24 0l25.6 5.76A261.12 261.12 0 0 1 512 752.64z" fill="#34303D" p-id="1785"></path><path d="M741.12 442.88a234.88 234.88 0 0 0-192-181.76l3.84-25.6A261.12 261.12 0 0 1 768 437.76z" fill="#34303D" p-id="1786"></path><path d="M368.64 492.16a142.72 142.72 0 0 0 41.6 101.12L512 492.16V349.44a143.36 143.36 0 0 0-143.36 142.72z" fill="#EA5E5A" p-id="1787"></path><path d="M655.36 492.16A143.36 143.36 0 0 0 512 349.44v142.72z" fill="#DB3D3C" p-id="1788"></path><path d="M512 648.96a156.16 156.16 0 1 1 156.16-156.16A156.16 156.16 0 0 1 512 648.96z m0-286.72a128 128 0 1 0 128 128 128 128 0 0 0-128-128zM798.08 479.36h26.24v26.24h-26.24zM850.56 479.36h26.24v26.24h-26.24zM746.24 479.36h26.24v26.24h-26.24zM199.68 479.36h26.24v26.24h-26.24zM251.52 479.36h26.24v26.24h-26.24zM147.84 479.36h26.24v26.24h-26.24zM199.68 179.84h26.24v26.24h-26.24zM798.08 179.84h26.24v26.24h-26.24zM199.68 778.88h26.24v26.24h-26.24zM798.08 778.88h26.24v26.24h-26.24z" fill="#34303D" p-id="1789"></path></svg>