<?xml version="1.0" standalone="no"?><!DOCTYPE svg PUBLIC "-//W3C//DTD SVG 1.1//EN" "http://www.w3.org/Graphics/SVG/1.1/DTD/svg11.dtd"><svg t="1692865737949" class="icon" viewBox="0 0 1024 1024" version="1.1" xmlns="http://www.w3.org/2000/svg" p-id="1122" xmlns:xlink="http://www.w3.org/1999/xlink" width="256" height="256"><path d="M220.16 560v200.32L512 881.92V542.08l-72.96 109.44-218.88-91.52z" fill="#F9DA8A" p-id="1123"></path><path d="M584.96 651.52L512 542.08v339.84l291.84-121.6V560l-218.88 91.52z" fill="#F6BE53" p-id="1124"></path><path d="M512 298.88l-291.84 121.6L512 542.08l291.84-121.6L512 298.88z" fill="#EA5E5A" p-id="1125"></path><path d="M556.16 334.4l8.96-22.592 243.072 97.28-9.024 22.528zM215.872 409.28l243.008-97.28 8.96 22.656-242.944 97.28zM512 895.36l-304-126.08V566.4h24.32v186.24L512 869.12l279.68-116.48V566.4h24.32v202.88L512 895.36z" fill="#34303D" p-id="1126"></path><path d="M512 554.88L215.68 431.36l8.96-22.4L512 528.64l287.36-119.68 8.96 22.4L512 554.88z" fill="#34303D" p-id="1127"></path><path d="M580.48 666.24L501.76 548.48l20.48-13.44 67.2 101.12 268.8-112-64.64-97.28 20.48-13.44 81.28 121.6-314.88 131.2z" fill="#34303D" p-id="1128"></path><path d="M443.52 666.24L128.64 535.04l81.28-121.6 20.48 13.44-65.28 97.28 269.44 112 67.2-101.12 20.48 13.44-78.72 117.76z" fill="#34303D" p-id="1129"></path><path d="M499.84 542.08h24.32v340.48h-24.32zM813.44 427.52l-19.2-14.72 63.36-84.48-268.16-112-18.56 28.16-20.48-13.44 30.08-44.8L896 317.44l-82.56 110.08zM210.56 427.52L128 317.44l315.52-131.2 30.08 44.8-20.48 13.44-18.56-28.16L166.4 328.32l63.36 84.48-19.2 14.72zM499.84 274.56h24.32v194.56h-24.32z" fill="#34303D" p-id="1130"></path><path d="M512 486.4L442.88 416.64l16.64-17.28 52.48 52.48 52.48-52.48 17.28 17.28L512 486.4zM499.84 225.92h24.32v24.32h-24.32zM499.84 177.28h24.32v24.32h-24.32zM499.84 128.64h24.32v24.32h-24.32z" fill="#34303D" p-id="1131"></path></svg>