<?xml version="1.0" standalone="no"?><!DOCTYPE svg PUBLIC "-//W3C//DTD SVG 1.1//EN" "http://www.w3.org/Graphics/SVG/1.1/DTD/svg11.dtd"><svg t="1692866028296" class="icon" viewBox="0 0 1024 1024" version="1.1" xmlns="http://www.w3.org/2000/svg" p-id="1944" xmlns:xlink="http://www.w3.org/1999/xlink" width="256" height="256"><path d="M344.32 284.16h336v119.68H344.32zM344.32 451.84h336v119.68H344.32zM344.32 620.16h336v119.68H344.32z" fill="#69C6DC" p-id="1945"></path><path d="M140.16 451.84h119.68v120.32H140.16zM764.16 451.84h119.68v120.32h-119.68z" fill="#EA5E5A" p-id="1946"></path><path d="M824.32 272A72.32 72.32 0 1 1 896 200.32a72.32 72.32 0 0 1-71.68 71.68z m0-119.68a48 48 0 1 0 48 48 48 48 0 0 0-48-48zM800 355.84h-83.84v-23.68h83.84a12.16 12.16 0 0 0 12.16-12.16v-23.68h24.32V320a35.84 35.84 0 0 1-35.84 35.84z" fill="#34303D" p-id="1947"></path><path d="M812.16 188.16h23.68v23.68h-23.68zM200.32 272a72.32 72.32 0 1 1 71.68-71.68 72.32 72.32 0 0 1-71.68 71.68z m0-119.68a48 48 0 1 0 48 48 48 48 0 0 0-48-48zM307.84 355.84H224A35.84 35.84 0 0 1 188.16 320v-23.68h24.32V320a12.16 12.16 0 0 0 12.16 12.16h83.2z" fill="#34303D" p-id="1948"></path><path d="M188.16 188.16h23.68v23.68h-23.68zM824.32 896A72.32 72.32 0 1 1 896 824.32 72.32 72.32 0 0 1 824.32 896z m0-119.68a48 48 0 1 0 48 48 48 48 0 0 0-48-48zM835.84 728.32h-23.68V704a12.16 12.16 0 0 0-12.16-12.16h-83.84v-23.68h83.84a35.84 35.84 0 0 1 35.84 35.84z" fill="#34303D" p-id="1949"></path><path d="M812.16 812.16h23.68v23.68h-23.68zM200.32 896a72.32 72.32 0 1 1 72.32-71.68A72.32 72.32 0 0 1 200.32 896z m0-119.68a48 48 0 1 0 48 48 48 48 0 0 0-48-48zM211.84 728.32h-23.68V704a35.84 35.84 0 0 1 35.84-35.84h83.84v24.32H224a12.16 12.16 0 0 0-12.16 12.16z" fill="#34303D" p-id="1950"></path><path d="M188.16 812.16h23.68v23.68h-23.68zM691.84 476.16h-23.68v-12.16H355.84v12.16h-23.68v-35.84h359.68v35.84zM691.84 584.32H332.16v-36.48h23.68v12.16h312.32v-12.16h23.68v36.48zM451.84 499.84h23.68v23.68h-23.68zM499.84 499.84h23.68v23.68h-23.68zM547.84 499.84h23.68v23.68h-23.68zM691.84 416H332.16V272h360.32z m-336-23.68h312.32v-96H355.84z" fill="#34303D" p-id="1951"></path><path d="M451.84 332.16h23.68v24.32h-23.68zM499.84 332.16h23.68v24.32h-23.68zM547.84 332.16h23.68v24.32h-23.68zM691.84 752H332.16V608h360.32z m-336-23.68h312.32v-96H355.84z" fill="#34303D" p-id="1952"></path><path d="M451.84 668.16h23.68v24.32h-23.68zM499.84 668.16h23.68v24.32h-23.68zM547.84 668.16h23.68v24.32h-23.68zM896 584.32h-144V440.32H896z m-119.68-23.68h96V464h-96z" fill="#34303D" p-id="1953"></path><path d="M668.16 499.84h96v23.68h-96zM812.16 499.84h23.68v23.68h-23.68zM272 584.32H128V440.32h144z m-119.68-24.32h96v-96h-96z" fill="#34303D" p-id="1954"></path><path d="M259.84 499.84h96v23.68h-96zM188.16 499.84h23.68v23.68h-23.68z" fill="#34303D" p-id="1955"></path></svg>